<svg width="31" height="31" viewBox="0 0 31 31" fill="none" xmlns="http://www.w3.org/2000/svg">
<path d="M15.3655 20.9693C15.9433 21.0488 16.8225 20.7094 17.5178 20.1779C17.8887 19.8932 18.2215 19.5438 18.4616 19.1912" stroke="#A7EC1C" stroke-width="1.18498" stroke-linecap="round" stroke-linejoin="round"/>
<mask id="path-2-inside-1_7336_4829" fill="white">
<path d="M25.5212 12.7923C25.6681 13.5009 25.742 14.2305 25.7431 14.9811C25.741 16.4858 25.4234 17.9735 24.8107 19.3479C24.198 20.7223 23.3039 21.9529 22.1861 22.9603C21.0683 23.9678 19.7517 24.7296 18.3212 25.1966C16.8907 25.6636 15.3782 25.8254 13.8813 25.6716C12.3844 25.5178 10.9364 25.0518 9.63076 24.3036C8.32514 23.5555 7.19092 22.5418 6.30135 21.3282C5.41177 20.1145 4.78661 18.7277 4.46623 17.2574C4.14585 15.7872 4.13737 14.266 4.44133 12.7923M24.5312 10.0141C23.6221 8.26672 22.2509 6.80237 20.567 5.78057C18.883 4.75878 16.951 4.21872 14.9813 4.21924C13.0116 4.21872 11.0796 4.75878 9.39563 5.78057C7.71171 6.80237 6.3405 8.26672 5.43142 10.0141"/>
</mask>
<path d="M26.6816 12.5519C26.5488 11.911 25.9217 11.4992 25.2809 11.6319C24.64 11.7647 24.2281 12.3918 24.3609 13.0327L25.5212 12.7923L26.6816 12.5519ZM25.7431 14.9811L26.9281 14.9827L26.9281 14.9793L25.7431 14.9811ZM5.60189 13.0316C5.73409 12.3907 5.32165 11.7639 4.6807 11.6317C4.03974 11.4995 3.41297 11.9119 3.28078 12.5529L4.44133 12.7923L5.60189 13.0316ZM23.4799 10.561C23.782 11.1416 24.4975 11.3673 25.0781 11.0653C25.6587 10.7632 25.8844 10.0477 25.5824 9.46715L24.5312 10.0141L23.4799 10.561ZM14.9813 4.21924L14.981 5.40422L14.9816 5.40422L14.9813 4.21924ZM4.3802 9.46715C4.07814 10.0477 4.30393 10.7632 4.8845 11.0653C5.46508 11.3673 6.18059 11.1416 6.48264 10.561L5.43142 10.0141L4.3802 9.46715ZM25.5212 12.7923L24.3609 13.0327C24.4908 13.6599 24.5571 14.3094 24.5581 14.9828L25.7431 14.9811L26.9281 14.9793C26.9269 14.1515 26.8453 13.3419 26.6816 12.5519L25.5212 12.7923ZM25.7431 14.9811L24.5581 14.9794C24.5563 16.3185 24.2736 17.6423 23.7284 18.8654L24.8107 19.3479L25.893 19.8303C26.5732 18.3046 26.9258 16.6532 26.9281 14.9827L25.7431 14.9811ZM24.8107 19.3479L23.7284 18.8654C23.1832 20.0885 22.3875 21.1836 21.3928 22.0801L22.1861 22.9603L22.9795 23.8406C24.2203 22.7222 25.2129 21.3561 25.893 19.8303L24.8107 19.3479ZM22.1861 22.9603L21.3928 22.0801C20.3981 22.9766 19.2264 23.6545 17.9534 24.0701L18.3212 25.1966L18.689 26.3231C20.277 25.8046 21.7386 24.9589 22.9795 23.8406L22.1861 22.9603ZM18.3212 25.1966L17.9534 24.0701C16.6805 24.4857 15.3345 24.6297 14.0024 24.4928L13.8813 25.6716L13.7602 26.8504C15.4219 27.0211 17.101 26.8415 18.689 26.3231L18.3212 25.1966ZM13.8813 25.6716L14.0024 24.4928C12.6703 24.356 11.3818 23.9412 10.2199 23.2755L9.63076 24.3036L9.04162 25.3318C10.491 26.1623 12.0985 26.6796 13.7602 26.8504L13.8813 25.6716ZM9.63076 24.3036L10.2199 23.2755C9.05805 22.6097 8.04872 21.7077 7.2571 20.6276L6.30135 21.3282L5.3456 22.0287C6.33313 23.376 7.59223 24.5013 9.04162 25.3318L9.63076 24.3036ZM6.30135 21.3282L7.2571 20.6276C6.46547 19.5476 5.90915 18.3135 5.62404 17.0051L4.46623 17.2574L3.30842 17.5097C3.66408 19.1419 4.35807 20.6814 5.3456 22.0287L6.30135 21.3282ZM4.46623 17.2574L5.62404 17.0051C5.33894 15.6968 5.33139 14.3431 5.60189 13.0316L4.44133 12.7923L3.28078 12.5529C2.94334 14.1889 2.95276 15.8776 3.30842 17.5097L4.46623 17.2574ZM24.5312 10.0141L25.5824 9.46715C24.5732 7.5274 23.051 5.90182 21.1817 4.76751L20.567 5.78057L19.9522 6.79364C21.4507 7.70293 22.671 9.00603 23.4799 10.561L24.5312 10.0141ZM20.567 5.78057L21.1817 4.76751C19.3123 3.6332 17.1675 3.03368 14.981 3.03426L14.9813 4.21924L14.9816 5.40422C16.7344 5.40376 18.4537 5.88435 19.9522 6.79364L20.567 5.78057ZM14.9813 4.21924L14.9816 3.03426C12.795 3.03368 10.6502 3.6332 8.7809 4.76751L9.39563 5.78057L10.0104 6.79364C11.5089 5.88435 13.2282 5.40376 14.981 5.40422L14.9813 4.21924ZM9.39563 5.78057L8.7809 4.76751C6.91157 5.90182 5.38938 7.5274 4.3802 9.46715L5.43142 10.0141L6.48264 10.561C7.29163 9.00603 8.51185 7.70293 10.0104 6.79364L9.39563 5.78057Z" fill="#A7EC1C" mask="url(#path-2-inside-1_7336_4829)"/>
<path d="M14.3884 10.6067V11.2561C14.3883 12.5259 13.884 13.7439 12.9861 14.6418C12.0881 15.5397 10.8702 16.0442 9.60034 16.0442C8.33048 16.0442 7.11257 15.5397 6.2146 14.6418C5.3167 13.7439 4.81237 12.5259 4.81226 11.2561V10.6067H14.3884ZM25.1501 10.6067V11.2561C25.15 12.5259 24.6457 13.7439 23.7478 14.6418C22.8498 15.5397 21.6319 16.0442 20.3621 16.0442C19.0922 16.0442 17.8743 15.5397 16.9763 14.6418C16.1345 13.8 15.6386 12.6768 15.5798 11.4934L15.574 11.2561V10.6067H25.1501Z" stroke="#A7EC1C" stroke-width="1.18498" stroke-linecap="round" stroke-linejoin="round"/>
</svg>
