<svg width="21" height="21" viewBox="0 0 21 21" fill="none" xmlns="http://www.w3.org/2000/svg">
<g clip-path="url(#clip0_7743_1125)">
<path d="M3.47089 15.4155C3.60542 15.5505 3.70851 15.7136 3.7728 15.893C3.8371 16.0725 3.86102 16.2639 3.84286 16.4536C3.75155 17.3318 3.57886 18.1996 3.32703 19.0458C5.13505 18.6271 6.23931 18.1424 6.74089 17.8884C7.02538 17.7443 7.35301 17.7101 7.6611 17.7925C8.54412 18.0288 9.45451 18.1474 10.3686 18.145C15.5477 18.145 19.4411 14.5069 19.4411 10.3686C19.4411 6.23018 15.5477 2.5921 10.3686 2.5921C5.18949 2.5921 1.29608 6.23148 1.29608 10.3686C1.29608 12.2712 2.09575 14.0364 3.47089 15.4155ZM2.83193 20.4766C2.52483 20.5374 2.21675 20.5932 1.90782 20.6438C1.64861 20.6853 1.4516 20.4157 1.55399 20.1747C1.66877 19.9031 1.77424 19.6278 1.87024 19.3491L1.87413 19.3361C2.19555 18.4029 2.45736 17.3298 2.55327 16.3305C0.962984 14.7363 0 12.6496 0 10.3686C0 5.35792 4.64254 1.29602 10.3686 1.29602C16.0947 1.29602 20.7372 5.35792 20.7372 10.3686C20.7372 15.3792 16.0947 19.4411 10.3686 19.4411C9.34161 19.4434 8.3188 19.31 7.32672 19.0445C6.65276 19.3854 5.20245 20.0062 2.83193 20.4766Z" fill="#272727"/>
<path d="M5.18433 7.12838C5.18433 6.95651 5.2526 6.79168 5.37413 6.67015C5.49566 6.54862 5.66049 6.48035 5.83236 6.48035H14.9049C15.0768 6.48035 15.2416 6.54862 15.3631 6.67015C15.4847 6.79168 15.5529 6.95651 15.5529 7.12838C15.5529 7.30025 15.4847 7.46509 15.3631 7.58662C15.2416 7.70815 15.0768 7.77642 14.9049 7.77642H5.83236C5.66049 7.77642 5.49566 7.70815 5.37413 7.58662C5.2526 7.46509 5.18433 7.30025 5.18433 7.12838ZM5.18433 10.3686C5.18433 10.1967 5.2526 10.0319 5.37413 9.91034C5.49566 9.78881 5.66049 9.72054 5.83236 9.72054H14.9049C15.0768 9.72054 15.2416 9.78881 15.3631 9.91034C15.4847 10.0319 15.5529 10.1967 15.5529 10.3686C15.5529 10.5404 15.4847 10.7053 15.3631 10.8268C15.2416 10.9483 15.0768 11.0166 14.9049 11.0166H5.83236C5.66049 11.0166 5.49566 10.9483 5.37413 10.8268C5.2526 10.7053 5.18433 10.5404 5.18433 10.3686ZM5.18433 13.6088C5.18433 13.4369 5.2526 13.2721 5.37413 13.1505C5.49566 13.029 5.66049 12.9607 5.83236 12.9607H11.0167C11.1885 12.9607 11.3534 13.029 11.4749 13.1505C11.5964 13.2721 11.6647 13.4369 11.6647 13.6088C11.6647 13.7806 11.5964 13.9455 11.4749 14.067C11.3534 14.1885 11.1885 14.2568 11.0167 14.2568H5.83236C5.66049 14.2568 5.49566 14.1885 5.37413 14.067C5.2526 13.9455 5.18433 13.7806 5.18433 13.6088Z" fill="#272727"/>
</g>
<defs>
<clipPath id="clip0_7743_1125">
<rect width="20.7372" height="20.7372" fill="white"/>
</clipPath>
</defs>
</svg>
