<svg width="31" height="31" viewBox="0 0 31 31" fill="none" xmlns="http://www.w3.org/2000/svg">
<path d="M20.2317 18.1625C19.1001 20.1201 17.223 21.2434 15.0818 21.2434C12.9405 21.2434 11.0635 20.1201 9.93184 18.1625C9.87517 18.0542 9.86255 17.9281 9.89661 17.8107C9.93067 17.6933 10.0088 17.5936 10.1146 17.5324C10.2205 17.4712 10.3459 17.4533 10.4646 17.4824C10.5833 17.5115 10.6863 17.5853 10.7518 17.6885C11.7247 19.37 13.2628 20.2955 15.0818 20.2955C16.9007 20.2955 18.4388 19.37 19.4117 17.6885C19.4413 17.6318 19.4821 17.5818 19.5316 17.5413C19.5811 17.5008 19.6382 17.4708 19.6996 17.453C19.761 17.4352 19.8254 17.43 19.8889 17.4377C19.9523 17.4454 20.0136 17.4658 20.0689 17.4978C20.1243 17.5298 20.1726 17.5727 20.2109 17.6238C20.2493 17.675 20.2769 17.7333 20.2921 17.7954C20.3073 17.8575 20.3098 17.922 20.2994 17.9851C20.289 18.0482 20.266 18.1085 20.2317 18.1625ZM26.9316 15.0815C26.9316 17.4252 26.2366 19.7162 24.9345 21.6649C23.6325 23.6136 21.7818 25.1325 19.6165 26.0293C17.4512 26.9262 15.0686 27.1609 12.77 26.7037C10.4713 26.2464 8.3599 25.1179 6.70268 23.4606C5.04545 21.8034 3.91686 19.692 3.45963 17.3933C3.0024 15.0947 3.23707 12.7121 4.13395 10.5468C5.03084 8.38151 6.54966 6.53082 8.49836 5.22875C10.4471 3.92667 12.7381 3.23169 15.0818 3.23169C18.2235 3.23514 21.2355 4.48471 23.4571 6.70624C25.6786 8.92776 26.9282 11.9398 26.9316 15.0815ZM25.9836 15.0815C25.9836 12.9253 25.3442 10.8176 24.1463 9.02478C22.9484 7.23198 21.2458 5.83466 19.2537 5.00953C17.2617 4.18439 15.0697 3.9685 12.9549 4.38915C10.8402 4.8098 8.89765 5.8481 7.373 7.37275C5.84835 8.8974 4.81005 10.8399 4.3894 12.9547C3.96875 15.0694 4.18464 17.2614 5.00978 19.2535C5.83491 21.2455 7.23223 22.9482 9.02503 24.1461C10.8178 25.344 12.9256 25.9834 15.0818 25.9834C17.9722 25.9802 20.7433 24.8306 22.7871 22.7868C24.8309 20.743 25.9805 17.9719 25.9836 15.0815ZM10.8158 13.6595C11.0033 13.6595 11.1866 13.6039 11.3425 13.4998C11.4984 13.3956 11.6199 13.2476 11.6917 13.0743C11.7634 12.9011 11.7822 12.7105 11.7456 12.5266C11.709 12.3427 11.6187 12.1738 11.4862 12.0412C11.3536 11.9087 11.1847 11.8184 11.0008 11.7818C10.8169 11.7452 10.6263 11.764 10.4531 11.8357C10.2798 11.9075 10.1318 12.029 10.0276 12.1849C9.92344 12.3408 9.86785 12.5241 9.86785 12.7116C9.86785 12.963 9.96772 13.2041 10.1455 13.3819C10.3233 13.5597 10.5644 13.6595 10.8158 13.6595ZM19.3477 11.7636C19.1602 11.7636 18.9769 11.8192 18.821 11.9233C18.6651 12.0275 18.5436 12.1756 18.4719 12.3488C18.4001 12.522 18.3814 12.7126 18.4179 12.8965C18.4545 13.0804 18.5448 13.2493 18.6774 13.3819C18.81 13.5145 18.9789 13.6047 19.1628 13.6413C19.3467 13.6779 19.5373 13.6591 19.7105 13.5874C19.8837 13.5156 20.0318 13.3941 20.1359 13.2382C20.2401 13.0823 20.2957 12.8991 20.2957 12.7116C20.2957 12.4601 20.1958 12.219 20.018 12.0412C19.8403 11.8634 19.5991 11.7636 19.3477 11.7636Z" fill="#ABABAB" stroke="#ABABAB" stroke-width="0.493743"/>
</svg>
