<svg width="21" height="18" viewBox="0 0 21 18" fill="none" xmlns="http://www.w3.org/2000/svg">
<path d="M4.32031 9.03405C4.32031 7.95993 4.32031 7.42286 4.55746 6.95078C4.79461 6.4787 5.23998 6.12918 6.13072 5.43015L6.99477 4.75206C8.60477 3.48856 9.40977 2.85681 10.3687 2.85681C11.3276 2.85681 12.1326 3.48856 13.7426 4.75206L14.6066 5.43015C15.4974 6.12918 15.9427 6.4787 16.1799 6.95078C16.417 7.42286 16.417 7.95993 16.417 9.03405V12.3886C16.417 13.8804 16.417 14.6262 15.9109 15.0896C15.4047 15.5531 14.5901 15.5531 12.9608 15.5531H7.77651C6.14725 15.5531 5.33261 15.5531 4.82646 15.0896C4.32031 14.6262 4.32031 13.8804 4.32031 12.3886V9.03405Z" stroke="white" stroke-width="1.48123"/>
<path d="M12.5287 15.5529V12.0967C12.5287 11.5514 12.0866 11.1093 11.5413 11.1093H9.19598C8.65061 11.1093 8.2085 11.5514 8.2085 12.0967V15.5529" stroke="white" stroke-width="1.48123" stroke-linecap="round" stroke-linejoin="round"/>
</svg>
