<svg width="20" height="20" viewBox="0 0 20 20" fill="none" xmlns="http://www.w3.org/2000/svg">
<path d="M2.82141 11.0598V7.70233C2.82141 4.53709 2.82141 2.95406 3.73993 1.97116C4.65845 0.988266 6.13576 0.987427 9.09117 0.987427H10.6586C13.614 0.987427 15.0921 0.987427 16.0098 1.97116C16.5224 2.51926 16.7489 3.25371 16.8484 4.34488M16.9284 7.70233V11.0598C16.9284 14.225 16.9284 15.8081 16.0098 16.791C15.0913 17.7739 13.614 17.7747 10.6586 17.7747H9.09117C6.13576 17.7747 4.65767 17.7747 3.73993 16.791C3.22738 16.2429 3.00088 15.5084 2.90135 14.4172M6.74001 11.0598H10.6586M6.74001 7.70233H7.52373M13.0098 7.70233H9.87489" stroke="#272727" stroke-width="0.987486" stroke-linecap="round"/>
</svg>
