<svg width="19" height="19" viewBox="0 0 19 19" fill="none" xmlns="http://www.w3.org/2000/svg">
<path fill-rule="evenodd" clip-rule="evenodd" d="M12.6666 5.91373C12.7779 5.9138 12.8845 5.95802 12.9632 6.0367C13.0419 6.11537 13.0861 6.22205 13.0862 6.33331L13.0862 11.0833C13.0882 11.1396 13.0788 11.1958 13.0586 11.2485C13.0384 11.3011 13.0078 11.3491 12.9687 11.3897C12.9295 11.4303 12.8826 11.4625 12.8307 11.4846C12.7788 11.5066 12.723 11.518 12.6666 11.518C12.6102 11.518 12.5544 11.5066 12.5025 11.4846C12.4506 11.4625 12.4037 11.4303 12.3645 11.3897C12.3254 11.3491 12.2948 11.3011 12.2746 11.2485C12.2544 11.1958 12.245 11.1396 12.247 11.0833L12.247 7.34664L6.63015 12.9635C6.55142 13.0422 6.44463 13.0865 6.33328 13.0865C6.22193 13.0865 6.11514 13.0422 6.0364 12.9635C5.95767 12.8848 5.91343 12.778 5.91343 12.6666C5.91343 12.5553 5.95767 12.4485 6.0364 12.3698L11.6533 6.75289L7.91661 6.75289C7.86026 6.75488 7.80409 6.7455 7.75145 6.72531C7.69881 6.70512 7.65077 6.67453 7.61021 6.63537C7.56964 6.59622 7.53738 6.54929 7.51534 6.49739C7.49331 6.44549 7.48195 6.38969 7.48195 6.33331C7.48195 6.27693 7.49331 6.22112 7.51534 6.16923C7.53738 6.11733 7.56964 6.0704 7.61021 6.03124C7.65077 5.99209 7.69881 5.9615 7.75145 5.94131C7.80409 5.92112 7.86026 5.91174 7.91661 5.91373L12.6666 5.91373Z" fill="#A7EC1C"/>
</svg>
