<svg width="21" height="21" viewBox="0 0 21 21" fill="none" xmlns="http://www.w3.org/2000/svg">
<path d="M10.3686 1.72815C7.98251 1.72815 6.04833 3.66233 6.04833 6.0484C6.04833 8.43448 7.98251 10.3687 10.3686 10.3687C12.7547 10.3687 14.6888 8.43448 14.6888 6.0484C14.6888 3.66233 12.7547 1.72815 10.3686 1.72815ZM7.12839 6.0484C7.12839 5.18905 7.46977 4.3649 8.07742 3.75724C8.68507 3.14959 9.50923 2.80821 10.3686 2.80821C11.2279 2.80821 12.0521 3.14959 12.6597 3.75724C13.2674 4.3649 13.6088 5.18905 13.6088 6.0484C13.6088 6.90775 13.2674 7.73191 12.6597 8.33956C12.0521 8.94722 11.2279 9.28859 10.3686 9.28859C9.50923 9.28859 8.68507 8.94722 8.07742 8.33956C7.46977 7.73191 7.12839 6.90775 7.12839 6.0484ZM5.29228 12.0968C4.80539 12.0968 4.33844 12.2901 3.99411 12.6344C3.64979 12.9786 3.45629 13.4455 3.45618 13.9324V14.2569C3.45618 15.8791 4.29517 17.094 5.58174 17.8773C6.84758 18.6476 8.54803 19.0092 10.3686 19.0092C12.1891 19.0092 13.8896 18.6476 15.1554 17.8773C16.442 17.094 17.281 15.8791 17.281 14.2569V13.9324C17.2809 13.4455 17.0874 12.9786 16.743 12.6344C16.3987 12.2901 15.9318 12.0968 15.4449 12.0968H5.29228ZM4.53624 13.9324C4.53635 13.732 4.61606 13.5398 4.75783 13.3981C4.89961 13.2564 5.09184 13.1768 5.29228 13.1768H15.4449C15.8626 13.1768 16.2009 13.5151 16.2009 13.9324V14.2569C16.2009 15.4424 15.6134 16.3341 14.5938 16.9549C13.5526 17.5887 12.0673 17.9291 10.3686 17.9291C8.66986 17.9291 7.18456 17.5887 6.14337 16.9549C5.12379 16.3341 4.53624 15.4428 4.53624 14.2569V13.9324Z" fill="#272727"/>
</svg>
