<svg width="19" height="19" viewBox="0 0 19 19" fill="none" xmlns="http://www.w3.org/2000/svg">
<path d="M5.25 1.26758H2.75C1.64543 1.26758 0.75 2.16301 0.75 3.26758V5.76758C0.75 6.87215 1.64543 7.76758 2.75 7.76758H5.25C6.35457 7.76758 7.25 6.87215 7.25 5.76758V3.26758C7.25 2.16301 6.35457 1.26758 5.25 1.26758Z" stroke="#242424" stroke-width="1.5" stroke-linecap="round" stroke-linejoin="round"/>
<path d="M12.586 1.33557C12.9611 0.960631 13.4697 0.75 14 0.75C14.5303 0.75 15.0389 0.960631 15.414 1.33557L17.182 3.10357C17.5569 3.47863 17.7676 3.98724 17.7676 4.51757C17.7676 5.0479 17.5569 5.55652 17.182 5.93157L15.414 7.69957C15.0389 8.07452 14.5303 8.28515 14 8.28515C13.4697 8.28515 12.9611 8.07452 12.586 7.69957L10.818 5.93157C10.4431 5.55652 10.2324 5.0479 10.2324 4.51757C10.2324 3.98724 10.4431 3.47863 10.818 3.10357L12.586 1.33557Z" stroke="#242424" stroke-width="1.5" stroke-linecap="round" stroke-linejoin="round"/>
<path d="M5.75 11.2676H2.25C1.42157 11.2676 0.75 11.9392 0.75 12.7676V16.2676C0.75 17.096 1.42157 17.7676 2.25 17.7676H5.75C6.57843 17.7676 7.25 17.096 7.25 16.2676V12.7676C7.25 11.9392 6.57843 11.2676 5.75 11.2676Z" stroke="#242424" stroke-width="1.5" stroke-linecap="round" stroke-linejoin="round"/>
<path d="M15.25 11.2676H12.75C11.6454 11.2676 10.75 12.163 10.75 13.2676V15.7676C10.75 16.8721 11.6454 17.7676 12.75 17.7676H15.25C16.3546 17.7676 17.25 16.8721 17.25 15.7676V13.2676C17.25 12.163 16.3546 11.2676 15.25 11.2676Z" stroke="#242424" stroke-width="1.5" stroke-linecap="round" stroke-linejoin="round"/>
</svg>
