<svg width="32" height="32" viewBox="0 0 32 32" fill="none" xmlns="http://www.w3.org/2000/svg">
<path d="M26.5969 22.2943C25.9654 18.9022 24.1609 15.776 21.4401 13.3607C20.8445 12.8392 20.5473 12.5789 19.8894 12.3384C19.2316 12.0968 18.6659 12.0968 17.5357 12.0968H15.0518C13.9216 12.0968 13.3559 12.0968 12.6981 12.3384C12.0414 12.5789 11.7418 12.8392 11.1473 13.3607C8.42662 15.776 6.62204 18.9022 5.99057 22.2943C5.4295 25.3406 8.55168 27.6496 12.0402 27.6496H20.5473C24.037 27.6496 27.1603 25.3406 26.5958 22.2943" stroke="#272727" stroke-width="0.987486" stroke-linecap="round" stroke-linejoin="round"/>
<path d="M10.8293 9.44551C10.5908 9.13446 10.2463 8.71142 10.9583 8.61603C11.6899 8.51649 12.4491 8.96649 13.1934 8.95819C13.865 8.94886 14.2072 8.68032 14.5759 8.29668C14.963 7.89334 15.5621 6.91248 16.2936 6.91248C17.0252 6.91248 17.6243 7.89334 18.0114 8.29668C18.3801 8.68032 18.7222 8.9499 19.3939 8.95716C20.1382 8.96752 20.8974 8.51649 21.629 8.61499C22.341 8.71142 21.9965 9.13342 21.758 9.44448L20.6843 10.8536C20.2234 11.4549 19.9942 11.7556 19.5126 11.9267C19.031 12.0978 18.41 12.0968 17.1669 12.0968H15.4203C14.1761 12.0968 13.5551 12.0968 13.0747 11.9267C12.5943 11.7567 12.3638 11.4539 11.903 10.8525L10.8293 9.44551Z" stroke="#272727" stroke-width="0.987486" stroke-linejoin="round"/>
<path d="M18.1682 18.2339C17.9193 17.4054 16.6509 16.6589 15.1289 17.2177C13.607 17.7766 13.3662 19.5735 15.667 19.7653C16.7085 19.8514 17.3859 19.6647 18.0069 20.1925C18.629 20.7192 18.7442 22.1864 17.1555 22.5814C15.569 22.9764 13.9964 22.3595 13.8259 21.4823M16.1117 16.2358V17.0249M16.1117 22.7027V23.4949" stroke="#272727" stroke-width="0.987486" stroke-linecap="round" stroke-linejoin="round"/>
</svg>
