<svg width="21" height="21" viewBox="0 0 21 21" fill="none" xmlns="http://www.w3.org/2000/svg">
<path d="M9.5063 3.08758C9.08891 3.08758 8.6886 3.24364 8.39346 3.52143C8.09831 3.79921 7.9325 4.17597 7.9325 4.56881C7.9325 4.96166 8.09831 5.33842 8.39346 5.6162C8.6886 5.89399 9.08891 6.05004 9.5063 6.05004C9.9237 6.05004 10.324 5.89399 10.6192 5.6162C10.9143 5.33842 11.0801 4.96166 11.0801 4.56881C11.0801 4.17597 10.9143 3.79921 10.6192 3.52143C10.324 3.24364 9.9237 3.08758 9.5063 3.08758ZM6.88329 4.56881C6.88329 3.91407 7.15965 3.28614 7.65156 2.82317C8.14347 2.36019 8.81064 2.1001 9.5063 2.1001C10.202 2.1001 10.8691 2.36019 11.3611 2.82317C11.853 3.28614 12.1293 3.91407 12.1293 4.56881C12.1293 5.22356 11.853 5.85149 11.3611 6.31446C10.8691 6.77743 10.202 7.03753 9.5063 7.03753C8.81064 7.03753 8.14347 6.77743 7.65156 6.31446C7.15965 5.85149 6.88329 5.22356 6.88329 4.56881ZM15.2769 4.07507C14.9987 4.07507 14.7318 4.17911 14.535 4.3643C14.3383 4.54949 14.2277 4.80066 14.2277 5.06256C14.2277 5.32445 14.3383 5.57563 14.535 5.76081C14.7318 5.946 14.9987 6.05004 15.2769 6.05004C15.5552 6.05004 15.8221 5.946 16.0188 5.76081C16.2156 5.57563 16.3261 5.32445 16.3261 5.06256C16.3261 4.80066 16.2156 4.54949 16.0188 4.3643C15.8221 4.17911 15.5552 4.07507 15.2769 4.07507ZM13.1785 5.06256C13.1785 4.53876 13.3996 4.03642 13.7931 3.66604C14.1867 3.29566 14.7204 3.08758 15.2769 3.08758C15.8335 3.08758 16.3672 3.29566 16.7607 3.66604C17.1543 4.03642 17.3753 4.53876 17.3753 5.06256C17.3753 5.58635 17.1543 6.08869 16.7607 6.45907C16.3672 6.82945 15.8335 7.03753 15.2769 7.03753C14.7204 7.03753 14.1867 6.82945 13.7931 6.45907C13.3996 6.08869 13.1785 5.58635 13.1785 5.06256ZM2.68648 5.06256C2.68648 4.80066 2.79702 4.54949 2.99378 4.3643C3.19055 4.17911 3.45742 4.07507 3.73568 4.07507C4.01395 4.07507 4.28082 4.17911 4.47758 4.3643C4.67434 4.54949 4.78489 4.80066 4.78489 5.06256C4.78489 5.32445 4.67434 5.57563 4.47758 5.76081C4.28082 5.946 4.01395 6.05004 3.73568 6.05004C3.45742 6.05004 3.19055 5.946 2.99378 5.76081C2.79702 5.57563 2.68648 5.32445 2.68648 5.06256ZM3.73568 3.08758C3.17915 3.08758 2.64541 3.29566 2.25188 3.66604C1.85835 4.03642 1.63727 4.53876 1.63727 5.06256C1.63727 5.58635 1.85835 6.08869 2.25188 6.45907C2.64541 6.82945 3.17915 7.03753 3.73568 7.03753C4.29221 7.03753 4.82595 6.82945 5.21948 6.45907C5.61301 6.08869 5.83409 5.58635 5.83409 5.06256C5.83409 4.53876 5.61301 4.03642 5.21948 3.66604C4.82595 3.29566 4.29221 3.08758 3.73568 3.08758ZM4.3652 14.9354L4.26028 14.9374C3.70375 14.9374 3.17001 14.7293 2.77648 14.359C2.38296 13.9886 2.16188 13.4862 2.16188 12.9624V9.25937C2.16188 9.1939 2.18951 9.13111 2.2387 9.08481C2.28789 9.03851 2.35461 9.0125 2.42418 9.0125H4.27497C4.31694 8.65009 4.45334 8.31336 4.65793 8.02502H2.42418C1.70023 8.02502 1.11267 8.57801 1.11267 9.25937V12.9624C1.11262 13.3852 1.20871 13.8031 1.39449 14.188C1.58026 14.5729 1.85142 14.9159 2.18974 15.194C2.52805 15.4721 2.92569 15.6789 3.35594 15.8003C3.78618 15.9218 4.23907 15.9552 4.68416 15.8982C4.5432 15.5884 4.43633 15.2658 4.3652 14.9354ZM14.3284 15.8982C14.4669 15.916 14.6082 15.9249 14.7523 15.9249C15.5871 15.9249 16.3877 15.6128 16.978 15.0572C17.5683 14.5017 17.8999 13.7481 17.8999 12.9624V9.25937C17.8999 8.57801 17.3124 8.02502 16.5884 8.02502H14.3547C14.5603 8.31336 14.6957 8.65009 14.7376 9.0125H16.5884C16.658 9.0125 16.7247 9.03851 16.7739 9.08481C16.8231 9.13111 16.8507 9.1939 16.8507 9.25937V12.9624C16.8508 13.2302 16.793 13.4951 16.681 13.7411C16.5689 13.9872 16.4048 14.2092 16.1987 14.3938C15.9927 14.5783 15.7489 14.7215 15.4822 14.8146C15.2155 14.9077 14.9315 14.9488 14.6474 14.9354C14.5763 15.2658 14.4694 15.5884 14.3284 15.8982ZM6.62099 8.02502C5.89704 8.02502 5.30949 8.57801 5.30949 9.25937V13.9499C5.30949 14.9975 5.75165 16.0022 6.53871 16.743C7.32576 17.4837 8.39324 17.8999 9.5063 17.8999C10.6194 17.8999 11.6868 17.4837 12.4739 16.743C13.261 16.0022 13.7031 14.9975 13.7031 13.9499V9.25937C13.7031 8.57801 13.1156 8.02502 12.3916 8.02502H6.62099ZM6.35869 9.25937C6.35869 9.1939 6.38633 9.13111 6.43552 9.08481C6.48471 9.03851 6.55143 9.0125 6.62099 9.0125H12.3916C12.4612 9.0125 12.5279 9.03851 12.5771 9.08481C12.6263 9.13111 12.6539 9.1939 12.6539 9.25937V13.9499C12.6539 14.7356 12.3223 15.4891 11.732 16.0447C11.1417 16.6003 10.3411 16.9124 9.5063 16.9124C8.67151 16.9124 7.8709 16.6003 7.28061 16.0447C6.69031 15.4891 6.35869 14.7356 6.35869 13.9499V9.25937Z" fill="#272727"/>
</svg>
