<svg width="31" height="31" viewBox="0 0 31 31" fill="none" xmlns="http://www.w3.org/2000/svg">
<path d="M15.0821 3.06348C12.7052 3.06348 10.3816 3.76833 8.4052 5.0889C6.42883 6.40948 4.88843 8.28646 3.9788 10.4825C3.06917 12.6785 2.83117 15.095 3.2949 17.4263C3.75862 19.7576 4.90324 21.899 6.58401 23.5798C8.26478 25.2606 10.4062 26.4052 12.7375 26.8689C15.0688 27.3326 17.4853 27.0946 19.6813 26.185C21.8773 25.2754 23.7543 23.735 25.0749 21.7586C26.3955 19.7822 27.1003 17.4586 27.1003 15.0817C27.0966 11.8954 25.8292 8.84069 23.5761 6.58765C21.3231 4.33462 18.2684 3.06722 15.0821 3.06348ZM15.0821 25.6859C12.9848 25.6859 10.9346 25.064 9.19073 23.8988C7.44686 22.7336 6.08769 21.0774 5.28507 19.1397C4.48246 17.2021 4.27246 15.0699 4.68163 13.0129C5.0908 10.9558 6.10076 9.06633 7.58379 7.5833C9.06683 6.10026 10.9563 5.09031 13.0134 4.68114C15.0704 4.27197 17.2025 4.48197 19.1402 5.28458C21.0779 6.08719 22.7341 7.44637 23.8993 9.19023C25.0645 10.9341 25.6864 12.9843 25.6864 15.0817C25.6833 17.8931 24.5651 20.5885 22.5771 22.5766C20.589 24.5646 17.8936 25.6828 15.0821 25.6859ZM9.66218 12.7251C9.66218 12.4921 9.73129 12.2643 9.86075 12.0705C9.99022 11.8768 10.1742 11.7258 10.3895 11.6366C10.6048 11.5474 10.8417 11.5241 11.0703 11.5695C11.2989 11.615 11.5088 11.7272 11.6736 11.892C11.8384 12.0568 11.9506 12.2667 11.996 12.4953C12.0415 12.7238 12.0182 12.9607 11.929 13.176C11.8398 13.3913 11.6888 13.5754 11.495 13.7048C11.3013 13.8343 11.0735 13.9034 10.8404 13.9034C10.5279 13.9034 10.2283 13.7793 10.0073 13.5583C9.78632 13.3373 9.66218 13.0376 9.66218 12.7251ZM20.5021 12.7251C20.5021 12.9582 20.433 13.186 20.3035 13.3797C20.1741 13.5735 19.99 13.7245 19.7747 13.8137C19.5595 13.9029 19.3225 13.9262 19.094 13.8808C18.8654 13.8353 18.6555 13.7231 18.4907 13.5583C18.3259 13.3935 18.2137 13.1836 18.1682 12.955C18.1228 12.7265 18.1461 12.4895 18.2353 12.2742C18.3245 12.059 18.4755 11.8749 18.6692 11.7455C18.863 11.616 19.0908 11.5469 19.3239 11.5469C19.6363 11.5469 19.936 11.671 20.157 11.892C20.378 12.113 20.5021 12.4127 20.5021 12.7251ZM20.4067 20.3838C20.4912 20.5454 20.51 20.7333 20.4592 20.9084C20.4084 21.0836 20.2919 21.2323 20.134 21.3235C19.9762 21.4148 19.7892 21.4415 19.6121 21.3981C19.435 21.3547 19.2815 21.2446 19.1836 21.0907C18.2599 19.4954 16.8036 18.6164 15.0821 18.6164C13.3607 18.6164 11.9009 19.4954 10.9806 21.0907C10.9186 21.1983 10.8292 21.2876 10.7217 21.3496C10.6141 21.4117 10.4921 21.4443 10.368 21.4442C10.2437 21.4446 10.1217 21.4116 10.0145 21.3488C9.85262 21.2547 9.73468 21.1003 9.68653 20.9194C9.63838 20.7385 9.66394 20.5459 9.75762 20.3838C10.9264 18.3619 12.867 17.2025 15.0821 17.2025C17.2973 17.2025 19.2378 18.3619 20.4067 20.3838Z" fill="#ABABAB"/>
</svg>
