<svg width="21" height="21" viewBox="0 0 21 21" fill="none" xmlns="http://www.w3.org/2000/svg">
<path d="M2.3761 17.9619H18.361M5.16525 2.77539H11.16C11.796 2.77539 12.4058 3.02801 12.8555 3.47767C13.3052 3.92734 13.5578 4.53721 13.5578 5.17313V17.9611H2.76751V5.17313C2.76751 4.53721 3.02013 3.92734 3.4698 3.47767C3.91946 3.02801 4.52933 2.77539 5.16525 2.77539Z" stroke="#272727" stroke-width="0.987486" stroke-linecap="round" stroke-linejoin="round"/>
<path d="M5.76489 5.97327H10.5604M5.76489 9.17025H10.5604M13.5569 7.97095H15.1554C15.4704 7.97072 15.7824 8.03258 16.0735 8.15297C16.3646 8.27337 16.6291 8.44995 16.852 8.67262C17.0748 8.8953 17.2516 9.1597 17.3722 9.45072C17.4928 9.74174 17.5549 10.0537 17.5549 10.3687V17.962M7.37116 12.3672H8.96966C9.28759 12.3675 9.59246 12.4938 9.81744 12.7184C10.0424 12.9431 10.1691 13.2477 10.1698 13.5657V17.962H6.17272V13.5657C6.17272 13.2478 6.29899 12.943 6.52374 12.7183C6.74849 12.4935 7.05332 12.3672 7.37116 12.3672Z" stroke="#272727" stroke-width="0.987486" stroke-linecap="round" stroke-linejoin="round"/>
</svg>
