<svg width="63" height="63" viewBox="0 0 63 63" fill="none" xmlns="http://www.w3.org/2000/svg">
<rect width="62.5892" height="62.5892" rx="12.9495" fill="url(#paint0_linear_7336_3631)"/>
<rect width="62.5892" height="62.5892" rx="12.9495" fill="black" fill-opacity="0.2"/>
<path d="M40.7124 42.3899C40.1804 43.3215 39.0828 43.8555 37.9278 43.8555H22.9921C21.8213 43.8555 20.7177 43.3235 20.1917 42.3899C19.9523 41.9669 19.6537 41.2204 19.6221 40.5344C19.6221 39.2558 19.8752 38.0084 20.3657 36.8546C21.5682 34.048 24.1629 31.8341 27.2007 31.2569C30.5233 30.6332 34.3364 30.7579 37.2 32.7537C39.7473 34.5156 41.2979 37.447 41.2979 40.5184C41.2663 41.22 40.9557 41.963 40.7124 42.3899Z" fill="white"/>
<path d="M51.5024 40.8621C51.5024 42.5616 50.0943 43.9493 48.3539 43.9493H41.4556C41.8986 43.5127 42.2626 42.9826 42.4999 42.3901C42.753 41.8288 42.8796 41.1895 42.8796 40.5346C42.8796 38.3985 42.2625 36.4027 41.1866 34.7028C40.8702 34.1883 40.5063 33.7049 40.0791 33.2528C40.4905 33.1748 43.6707 33.1436 43.6707 33.1436C47.99 33.1436 51.5024 36.6052 51.5024 40.8621Z" fill="white"/>
<path d="M19.717 34.703C18.6569 36.4026 18.0399 38.3984 18.0399 40.5348C18.0399 41.1896 18.1664 41.829 18.4196 42.3903C18.6569 42.9828 19.0208 43.5129 19.4638 43.9495H12.5655C10.8252 43.9495 9.41699 42.5618 9.41699 40.8622C9.41699 36.6056 12.9294 33.144 17.2489 33.144C17.2489 33.144 20.4132 33.1751 20.8246 33.2531C20.3974 33.7053 20.0334 34.1885 19.717 34.703Z" fill="white"/>
<path d="M47.6901 27.6239C47.6901 30.4305 45.3802 32.7072 42.5482 32.7072C39.7162 32.7072 37.4062 30.4307 37.4062 27.6239C37.4062 24.8328 39.7162 22.5565 42.5482 22.5565C45.3802 22.5565 47.6901 24.833 47.6901 27.6239Z" fill="white"/>
<path d="M23.594 27.6239C23.594 30.4305 21.284 32.7072 18.4359 32.7072C15.6038 32.7072 13.2939 30.4307 13.2939 27.6239C13.2939 24.8328 15.6039 22.5565 18.4359 22.5565C21.2838 22.5565 23.594 24.833 23.594 27.6239Z" fill="white"/>
<path d="M36.6468 24.1003C36.6468 27.4409 33.8978 30.1501 30.508 30.1501C27.1182 30.1501 24.3691 27.4409 24.3691 24.1003C24.3691 20.7597 27.1182 18.0505 30.508 18.0505C33.8978 18.0505 36.6468 20.7597 36.6468 24.1003Z" fill="white"/>
<defs>
<linearGradient id="paint0_linear_7336_3631" x1="-1.07129e-06" y1="-8.63299" x2="87.2545" y2="88.5276" gradientUnits="userSpaceOnUse">
<stop stop-color="#2BD59C"/>
<stop offset="1" stop-color="#085D8E"/>
</linearGradient>
</defs>
</svg>
