<svg width="24" height="24" viewBox="0 0 24 24" fill="none" xmlns="http://www.w3.org/2000/svg">
<path d="M11.8496 0.113281C14.9612 0.116936 17.9442 1.35451 20.1445 3.55469C22.3448 5.75492 23.5832 8.73802 23.5869 11.8496C23.5869 14.1709 22.898 16.44 21.6084 18.3701C20.3188 20.3001 18.4863 21.805 16.3418 22.6934C14.1973 23.5816 11.8371 23.8141 9.56055 23.3613C7.28394 22.9085 5.19217 21.7907 3.55078 20.1494C1.90938 18.508 0.791754 16.4163 0.338867 14.1396C-0.114002 11.8629 0.118501 9.50303 1.00684 7.3584C1.89518 5.21381 3.39902 3.38046 5.3291 2.09082C7.25915 0.801208 9.52837 0.113327 11.8496 0.113281ZM15.8945 2.08594C13.9634 1.28603 11.8382 1.0766 9.78809 1.48438C7.73796 1.89217 5.85501 2.89889 4.37695 4.37695C2.89889 5.85501 1.89217 7.73796 1.48438 9.78809C1.0766 11.8382 1.28603 13.9634 2.08594 15.8945C2.88587 17.8256 4.24059 19.4765 5.97852 20.6377C7.71639 21.7988 9.75955 22.4189 11.8496 22.4189C14.6516 22.4158 17.338 21.3007 19.3193 19.3193C21.3007 17.338 22.4158 14.6516 22.4189 11.8496C22.4189 9.75954 21.7988 7.71639 20.6377 5.97852C19.4765 4.24059 17.8256 2.88587 15.8945 2.08594ZM7.20312 14.9834H16.4971C16.6519 14.9835 16.8007 15.0448 16.9102 15.1543C17.0196 15.2638 17.081 15.4125 17.0811 15.5674C17.0811 15.7222 17.0196 15.8709 16.9102 15.9805C16.8007 16.0899 16.6519 16.1513 16.4971 16.1514H7.20312C7.04827 16.1514 6.89956 16.0899 6.79004 15.9805C6.6805 15.8709 6.61914 15.7223 6.61914 15.5674C6.61915 15.4125 6.68051 15.2638 6.79004 15.1543C6.89956 15.0449 7.04829 14.9834 7.20312 14.9834ZM7.87207 8.49805C8.07551 8.53851 8.26251 8.63848 8.40918 8.78516C8.55563 8.9317 8.65579 9.11811 8.69629 9.32129C8.73675 9.52472 8.71608 9.73611 8.63672 9.92773C8.55734 10.1194 8.42247 10.2832 8.25 10.3984C8.07769 10.5135 7.87518 10.5751 7.66797 10.5752C7.38982 10.5752 7.12246 10.4643 6.92578 10.2676C6.72927 10.0709 6.61915 9.80439 6.61914 9.52637C6.61914 9.31894 6.68066 9.11583 6.7959 8.94336C6.91113 8.77108 7.07511 8.63694 7.2666 8.55762C7.45816 8.47833 7.66873 8.4576 7.87207 8.49805ZM16.0322 8.47754C16.3103 8.47756 16.5768 8.58849 16.7734 8.78516C16.9701 8.98183 17.0811 9.24824 17.0811 9.52637C17.081 9.73378 17.0195 9.93691 16.9043 10.1094C16.7891 10.2817 16.6251 10.4158 16.4336 10.4951C16.242 10.5745 16.0306 10.5952 15.8271 10.5547C15.6239 10.5142 15.4376 10.4141 15.291 10.2676C15.1443 10.1209 15.0444 9.93391 15.0039 9.73047C14.9635 9.52714 14.9841 9.31652 15.0635 9.125C15.1428 8.93346 15.2769 8.76951 15.4492 8.6543C15.6217 8.53906 15.8248 8.47754 16.0322 8.47754Z" fill="#ABABAB" stroke="#ABABAB" stroke-width="0.225949"/>
</svg>
