<svg width="32" height="32" viewBox="0 0 32 32" fill="none" xmlns="http://www.w3.org/2000/svg">
<path d="M16 0C12.8355 0 9.74207 0.938383 7.11088 2.69649C4.4797 4.45459 2.42894 6.95345 1.21793 9.87706C0.00693228 12.8007 -0.309921 16.0177 0.307443 19.1214C0.924806 22.2251 2.44866 25.0761 4.6863 27.3137C6.92394 29.5513 9.77486 31.0752 12.8786 31.6926C15.9823 32.3099 19.1993 31.9931 22.1229 30.7821C25.0466 29.5711 27.5454 27.5203 29.3035 24.8891C31.0616 22.2579 32 19.1645 32 16C31.995 11.7581 30.3077 7.69129 27.3082 4.69179C24.3087 1.69229 20.2419 0.00498172 16 0ZM16 30.1176C13.2078 30.1176 10.4783 29.2897 8.15666 27.7384C5.83503 26.1871 4.02553 23.9822 2.957 21.4026C1.88847 18.8229 1.60889 15.9843 2.15363 13.2458C2.69836 10.5072 4.04293 7.9917 6.01732 6.01731C7.99171 4.04293 10.5072 2.69835 13.2458 2.15362C15.9843 1.60889 18.8229 1.88846 21.4026 2.95699C23.9823 4.02553 26.1871 5.83502 27.7384 8.15665C29.2897 10.4783 30.1176 13.2078 30.1176 16C30.1135 19.743 28.6248 23.3314 25.9781 25.9781C23.3314 28.6248 19.743 30.1135 16 30.1176ZM23.2157 21.0196C23.2157 21.2692 23.1165 21.5086 22.94 21.6851C22.7635 21.8616 22.5241 21.9608 22.2745 21.9608H9.7255C9.47588 21.9608 9.23649 21.8616 9.05998 21.6851C8.88348 21.5086 8.78432 21.2692 8.78432 21.0196C8.78432 20.77 8.88348 20.5306 9.05998 20.3541C9.23649 20.1776 9.47588 20.0784 9.7255 20.0784H22.2745C22.5241 20.0784 22.7635 20.1776 22.94 20.3541C23.1165 20.5306 23.2157 20.77 23.2157 21.0196ZM8.78432 12.8627C8.78432 12.5525 8.87632 12.2492 9.04868 11.9913C9.22104 11.7333 9.46603 11.5322 9.75266 11.4135C10.0393 11.2948 10.3547 11.2637 10.659 11.3243C10.9633 11.3848 11.2428 11.5342 11.4621 11.7536C11.6815 11.9729 11.8309 12.2524 11.8914 12.5567C11.952 12.861 11.9209 13.1764 11.8022 13.463C11.6834 13.7497 11.4824 13.9946 11.2244 14.167C10.9665 14.3394 10.6632 14.4314 10.3529 14.4314C9.93692 14.4314 9.53793 14.2661 9.24376 13.9719C8.94958 13.6778 8.78432 13.2788 8.78432 12.8627ZM23.2157 12.8627C23.2157 13.173 23.1237 13.4763 22.9513 13.7342C22.779 13.9922 22.534 14.1932 22.2473 14.312C21.9607 14.4307 21.6453 14.4618 21.341 14.4012C21.0368 14.3407 20.7572 14.1913 20.5379 13.9719C20.3185 13.7526 20.1691 13.4731 20.1086 13.1688C20.048 12.8645 20.0791 12.5491 20.1978 12.2625C20.3166 11.9758 20.5176 11.7308 20.7756 11.5585C21.0335 11.3861 21.3368 11.2941 21.6471 11.2941C22.0631 11.2941 22.4621 11.4594 22.7562 11.7536C23.0504 12.0477 23.2157 12.4467 23.2157 12.8627Z" fill="#333333"/>
</svg>
